#!OML:ASF E:\Style6\Style6.ASF
:FULLY-SPECIFIED
:DEGREES
2472
root 0.231448 18.2489 0.179229 9.67489 -2.63447 -3.41356
lowerback -5.90361 0.178135 2.34801
upperback -4.45821 0.144851 2.60279
thorax -1.2848 0.0533709 1.36715
lowerneck -6.44786 0.149692 3.21659
upperneck 14.1545 0.588473 -5.39035
head 5.33634 0.0930225 -2.17753
rclavicle -1.30825e-014 4.29375e-014
rhumerus 49.9763 38.9212 -12.5949
rradius 57.2174
rwrist 51.6891
rhand -38.7859 31.6284
rfingers 7.12502
rthumb -11.7972 1.98069
lclavicle -1.30825e-014 4.29375e-014
lhumerus 59.762 -42.4155 -0.980648
lradius 59.1151
lwrist -35.6178
lhand -31.7689 20.8679
lfingers 7.12502
lthumb -5.02562 50.7883
rfemur -10.9953 13.7862 20.9911
rtibia 9.43893
rfoot -2.49138 -17.0149
rtoes -17.4633
lfemur -16.0121 -16.7219 -13.1894
ltibia 21.2124
lfoot -7.4916 20.5841
ltoes -12.6059
2473
root 0.231904 18.25 0.175734 9.64664 -2.57033 -3.46496
lowerback -6.19705 0.167149 2.40386
upperback -4.35951 0.111723 2.61729
thorax -1.01972 0.0374919 1.34972
lowerneck -6.6119 0.143712 3.26583
upperneck 14.4897 0.590086 -5.43783
head 5.46863 0.0885622 -2.20428
rclavicle -6.23687e-015 -2.18663e-014
rhumerus 51.3259 38.0304 -12.8146
rradius 53.7525
rwrist 52.5628
rhand -38.8543 31.8165
rfingers 7.12502
rthumb -11.8631 2.1726
lclavicle -6.23687e-015 -2.18663e-014
lhumerus 61.5611 -41.5834 -1.23499
lradius 55.558
lwrist -35.3912
lhand -31.3091 19.329
lfingers 7.12502
lthumb -4.58158 49.2594
rfemur -10.955 13.7287 21.0546
rtibia 9.44103
rfoot -2.58091 -16.9686
rtoes -16.9624
lfemur -16.018 -16.7321 -13.1294
ltibia 21.2336
lfoot -7.48742 20.5717
ltoes -12.6472
2474
root 0.232237 18.2507 0.171713 9.63399 -2.50967 -3.48917
lowerback -6.41295 0.161643 2.47946
upperback -4.30231 0.0892981 2.59731
thorax -0.840744 0.0256824 1.28599
lowerneck -6.64379 0.144852 3.29955
upperneck 14.6522 0.591688 -5.43049
head 5.52471 0.0900901 -2.20919
rclavicle -5.479e-015 2.54444e-014
rhumerus 52.4917 37.1844 -13.2132
rradius 50.4252
rwrist 53.4888
rhand -39.2888 31.9904
rfingers 7.12502
rthumb -12.2821 2.37113
lclavicle -5.479e-015 2.54444e-014
lhumerus 63.5137 -40.8863 -1.76397
lradius 52.0905
lwrist -35.6313
lhand -30.9533 18.8814
lfingers 7.12502
lthumb -4.23803 48.819
rfemur -10.9664 13.6704 21.0873
rtibia 9.47403
rfoot -2.73702 -16.9505
rtoes -16.0364
lfemur -16.0539 -16.6944 -13.0992
ltibia 21.2655
lfoot -7.48876 20.5125
ltoes -12.8052
2475
root 0.231194 18.2502 0.167295 9.58378 -2.46786 -3.4415
lowerback -6.5127 0.138162 2.43709
upperback -4.25908 0.0543306 2.58732
thorax -0.740518 0.00963464 1.29759
lowerneck -6.64919 0.162623 3.34999
upperneck 14.7678 0.622859 -5.49115
head 5.56315 0.102951 -2.23584
rclavicle 1.26353e-014 -2.0276e-014
rhumerus 53.5056 36.3088 -13.8671
rradius 47.3068
rwrist 54.4393
rhand -39.4712 31.7175
rfingers 7.12502
rthumb -12.458 2.1088
lclavicle 1.26353e-014 -2.0276e-014
lhumerus 65.1604 -40.2657 -2.18161
lradius 48.9395
lwrist -36.4416
lhand -30.8716 19.0935
lfingers 7.12502
lthumb -4.15913 49.0327
rfemur -10.9376 13.6188 21.0583
rtibia 9.49275
rfoot -2.69024 -16.9636
rtoes -16.1878
lfemur -16.0443 -16.6518 -13.1639
ltibia 21.3146
lfoot -7.46767 20.4183
ltoes -12.7763
2476
root 0.229609 18.2505 0.161534 9.5445 -2.41222 -3.39632
lowerback -6.32631 0.064011 2.34233
upperback -4.4059 -0.0264588 2.63091
thorax -0.99503 -0.0302146 1.39129
lowerneck -6.50573 0.206646 3.30833
upperneck 14.9486 0.704574 -5.53537
head 5.59845 0.137995 -2.23887
rclavicle 6.95746e-016 -1.90833e-014
rhumerus 54.3981 35.7048 -14.6585
rradius 44.5456
rwrist 55.301
rhand -39.2768 31.7567
rfingers 7.12502
rthumb -12.2705 2.13674
lclavicle 6.95746e-016 -1.90833e-014
lhumerus 65.7717 -39.876 -1.68053
lradius 46.497
lwrist -37.8603
lhand -30.7373 18.7231
lfingers 7.12502
lthumb -4.02944 48.6648
rfemur -10.9365 13.5561 21.041
rtibia 9.55556
rfoot -2.53182 -16.9796
rtoes -17.437
lfemur -16.0443 -16.5705 -13.2238
ltibia 21.3482
lfoot -7.4304 20.3052
ltoes -12.646
2477
root 0.228927 18.2508 0.158794 9.54914 -2.36174 -3.40694
lowerback -6.20257 -0.00127973 2.32985
upperback -4.54379 -0.102575 2.6829
thorax -1.20575 -0.0688562 1.44852
lowerneck -6.42211 0.256391 3.25379
upperneck 15.1551 0.791507 -5.55361
head 5.65229 0.175546 -2.23163
rclavicle 5.36719e-015 -7.15625e-015
rhumerus 55.1425 35.0944 -15.5632
rradius 42.1381
rwrist 56.0748
rhand -38.7984 32.7956
rfingers 7.12502
rthumb -11.8092 3.14854
lclavicle 5.36719e-015 -7.15625e-015
lhumerus 65.9196 -39.4892 -0.677794
lradius 44.5156
lwrist -39.327
lhand -30.5909 18.2673
lfingers 7.12502
lthumb -3.88808 48.2116
rfemur -10.9614 13.5074 21.0622
rtibia 9.59948
rfoot -2.60328 -16.9814
rtoes -17.0267
lfemur -16.0779 -16.565 -13.2021
ltibia 21.3792
lfoot -7.47257 20.2299
ltoes -12.0978
2478
root 0.228727 18.2505 0.157766 9.57838 -2.35051 -3.32823
lowerback -6.1656 -0.04092 2.23532
upperback -4.61851 -0.146871 2.68755
thorax -1.30279 -0.0894614 1.5045
lowerneck -6.46643 0.305209 3.28533
upperneck 15.3158 0.869371 -5.61775
head 5.71396 0.208803 -2.25366
rclavicle -8.89561e-015 3.06128e-014
rhumerus 55.7065 34.4152 -16.4438
rradius 40.2076
rwrist 56.6123
rhand -37.7046 33.0478
rfingers 7.12502
rthumb -10.7543 3.34309
lclavicle -8.89561e-015 3.06128e-014
lhumerus 66.108 -39.0802 0.224882
lradius 43.0227
lwrist -39.8915
lhand -30.1203 18.3335
lfingers 7.12502
lthumb -3.43362 48.2856
rfemur -11.0249 13.4793 20.9623
rtibia 9.62692
rfoot -2.65141 -16.9599
rtoes -16.4078
lfemur -16.1351 -16.559 -13.2781
ltibia 21.4061
lfoot -7.42376 20.1671
ltoes -11.7805
2479
root 0.22752 18.249 0.157012 9.62366 -2.32217 -3.37259
lowerback -6.13381 -0.137725 2.27513
upperback -4.67854 -0.273926 2.76824
thorax -1.3814 -0.1535 1.5597
lowerneck -6.50841 0.411809 3.18053
upperneck 15.4144 1.03713 -5.65771
head 5.7598 0.280121 -2.23846
rclavicle 1.02374e-014 -5.96354e-015
rhumerus 56.4922 33.8944 -16.9667
rradius 38.7461
rwrist 56.6903
rhand -36.2815 32.2744
rfingers 7.12502
rthumb -9.38138 2.5032
lclavicle 1.02374e-014 -5.96354e-015
lhumerus 66.0089 -38.7414 1.02709
lradius 42.1846
lwrist -39.4416
lhand -29.266 18.6413
lfingers 7.12502
lthumb -2.60858 48.6051
rfemur -11.076 13.4602 21.011
rtibia 9.6152
rfoot -2.58837 -16.9765
rtoes -16.6165
lfemur -16.2116 -16.5129 -13.2031
ltibia 21.427
lfoot -7.28923 20.1138
ltoes -12.3061
2480
root 0.226555 18.2494 0.156394 9.65055 -2.3184 -3.4019
lowerback -6.16215 -0.103085 2.44107
upperback -4.64921 -0.237899 2.6742
thorax -1.33695 -0.140463 1.3712
lowerneck -6.66329 0.409426 3.31071
upperneck 15.4564 1.02281 -5.70092
head 5.79967 0.274942 -2.27554
rclavicle -8.10048e-015 4.29375e-014
rhumerus 56.6566 33.1023 -18.0885
rradius 37.4095
rwrist 56.8426
rhand -35.7608 31.9361
rfingers 7.12502
rthumb -8.87901 2.1429
lclavicle -8.10048e-015 4.29375e-014
lhumerus 66.3069 -38.2672 1.5209
lradius 41.59
lwrist -38.9786
lhand -28.8376 18.5991
lfingers 7.12502
lthumb -2.19488 48.5676
rfemur -11.0941 13.4629 21.0474
rtibia 9.60053
rfoot -2.51924 -16.9793
rtoes -17.1755
lfemur -16.2577 -16.4605 -13.1533
ltibia 21.4298
lfoot -7.19495 20.0745
ltoes -13.0622
2481
root 0.225752 18.2505 0.157775 9.67955 -2.32091 -3.44681
lowerback -6.18934 0.0645786 2.61552
upperback -4.63586 -0.0247688 2.48696
thorax -1.30966 -0.0401498 1.09082
lowerneck -6.7725 0.282014 3.69776
upperneck 15.483 0.812647 -5.7944
head 5.81772 0.186616 -2.38495
rclavicle 7.10655e-015 -2.66371e-014
rhumerus 56.1027 32.1061 -19.8532
rradius 36.1455
rwrist 57.2474
rhand -36.0643 32.3009
rfingers 7.12502
rthumb -9.17181 2.52039
lclavicle 7.10655e-015 -2.66371e-014
lhumerus 66.9069 -37.8505 1.96514
lradius 41.1398
lwrist -38.7403
lhand -28.961 18.614
lfingers 7.12502
lthumb -2.31402 48.5812
rfemur -11.1131 13.4735 21.0928
rtibia 9.59684
rfoot -2.47612 -16.9745
rtoes -17.4344
lfemur -16.2781 -16.4276 -13.0954
ltibia 21.4217
lfoot -7.1815 20.0805
ltoes -13.5068
2482
root 0.22505 18.2509 0.160241 9.69493 -2.3113 -3.45372
lowerback -6.13947 0.0181843 2.61068
upperback -4.65786 -0.0831269 2.54069
thorax -1.36012 -0.0689705 1.14618
lowerneck -6.82596 0.345672 3.65967
upperneck 15.5066 0.916502 -5.87303
head 5.8397 0.228279 -2.39673
rclavicle -1.36664e-015 -4.77083e-015
rhumerus 56.2924 31.4595 -20.9428
rradius 35.2581
rwrist 57.4203
rhand -36.338 32.8103
rfingers 7.12502
rthumb -9.43595 3.04154
lclavicle -1.36664e-015 -4.77083e-015
lhumerus 66.6033 -37.5715 2.8735
lradius 40.9314
lwrist -38.2406
lhand -29.1372 18.6532
lfingers 7.12502
lthumb -2.48418 48.6185
rfemur -11.1123 13.4656 21.1059
rtibia 9.6196
rfoot -2.64761 -16.9508
rtoes -16.7229
lfemur -16.2687 -16.4152 -13.0828
ltibia 21.3909
lfoot -7.2274 20.0836
ltoes -13.5047
2483
root 0.223708 18.2512 0.16163 9.72197 -2.35398 -3.40588
lowerback -6.07422 -0.100689 2.52919
upperback -4.67721 -0.233978 2.64098
thorax -1.41542 -0.141693 1.28823
lowerneck -6.83659 0.47037 3.43318
upperneck 15.4464 1.11264 -5.86877
head 5.83195 0.311129 -2.34317
rclavicle 6.88292e-015 -1.43125e-014
rhumerus 56.8941 31.0828 -21.4017
rradius 34.7854
rwrist 57.2928
rhand -36.6531 32.9831
rfingers 7.12502
rthumb -9.73996 3.22835
lclavicle 6.88292e-015 -1.43125e-014
lhumerus 66.0824 -37.3516 3.56964
lradius 41.0646
lwrist -37.3713
lhand -29.2718 18.5767
lfingers 7.12502
lthumb -2.61422 48.5405
rfemur -11.1331 13.4989 21.0455
rtibia 9.61095
rfoot -2.70394 -16.9373
rtoes -16.3162
lfemur -16.2656 -16.4095 -13.1236
ltibia 21.3422
lfoot -7.21351 20.1092
ltoes -13.3082
